<svg xmlns="http://www.w3.org/2000/svg" viewBox="0 0 200 60" width="200" height="60">
  <!-- 背景 -->
  <rect width="200" height="60" rx="8" fill="#f8f9fa" />
  
  <!-- 福字图形 -->
  <g transform="translate(20, 10)">
    <path d="M30,10 C35,10 40,15 40,25 C40,40 25,45 15,40 C5,35 5,20 15,15 C25,10 25,10 30,10 Z" fill="#409EFF" />
    <text x="20" y="30" font-family="'Noto Sans SC', sans-serif" font-size="24" font-weight="bold" fill="white" text-anchor="middle">福</text>
  </g>
  
  <!-- 文字部分 -->
  <text x="75" y="30" font-family="'Noto Sans SC', sans-serif" font-size="18" font-weight="bold" fill="#303133">福州旅游指南</text>
  
  <!-- 标语 -->
  <text x="75" y="48" font-family="'Noto Sans SC', sans-serif" font-size="12" fill="#909399">探索榕城之美</text>
  
  <!-- 装饰元素 -->
  <path d="M170,15 C175,15 180,20 180,25 C180,30 175,35 170,35 C165,35 160,30 160,25 C160,20 165,15 170,15 Z" fill="#67C23A" opacity="0.7" />
  <path d="M180,30 C182,30 184,32 184,34 C184,36 182,38 180,38 C178,38 176,36 176,34 C176,32 178,30 180,30 Z" fill="#E6A23C" opacity="0.7" />
</svg> 